<svg width="142" height="116" viewBox="0 0 142 116" fill="none" xmlns="http://www.w3.org/2000/svg">
<path d="M70.9 101.6C98.9 101.6 121.6 78.9 121.6 50.8C121.6 22.7 98.9 0 70.9 0C42.9 0 20.2 22.7 20.2 50.8C20.2 78.9 42.9 101.6 70.9 101.6Z" fill="#EDF2FF"/>
<path d="M127.4 29.9C129.664 29.9 131.5 28.0643 131.5 25.7999C131.5 23.5356 129.664 21.7 127.4 21.7C125.136 21.7 123.3 23.5356 123.3 25.7999C123.3 28.0643 125.136 29.9 127.4 29.9Z" fill="#EDF2FF"/>
<path d="M133.4 13.8C134.946 13.8 136.2 12.5463 136.2 11C136.2 9.45355 134.946 8.19995 133.4 8.19995C131.854 8.19995 130.6 9.45355 130.6 11C130.6 12.5463 131.854 13.8 133.4 13.8Z" fill="#EDF2FF"/>
<path d="M16.8 32.7999C18.3464 32.7999 19.6 31.5463 19.6 30C19.6 28.4536 18.3464 27.2 16.8 27.2C15.2536 27.2 14 28.4536 14 30C14 31.5463 15.2536 32.7999 16.8 32.7999Z" fill="#EDF2FF"/>
<path d="M22 93.7C24.8719 93.7 27.2 91.3719 27.2 88.5C27.2 85.6282 24.8719 83.3 22 83.3C19.1282 83.3 16.8 85.6282 16.8 88.5C16.8 91.3719 19.1282 93.7 22 93.7Z" fill="#EDF2FF"/>
<g filter="url(#filter0_d_44_148)">
<path d="M111.216 82.8694H30.7836C25.8899 82.8694 22 78.9795 22 74.0858V27.7836C22 22.8899 25.8899 19 30.7836 19H111.216C116.11 19 120 22.8899 120 27.7836V74.0858C120 78.9795 116.11 82.8694 111.216 82.8694Z" fill="url(#paint0_linear_44_148)"/>
</g>
<path d="M46.845 68.4392H34.046C32.9167 68.4392 32.0383 67.5608 32.0383 66.4315C32.0383 65.3022 32.9167 64.4238 34.046 64.4238H46.845C47.9743 64.4238 48.8527 65.3022 48.8527 66.4315C48.8527 67.5608 47.9743 68.4392 46.845 68.4392Z" fill="#D5DDEA"/>
<path d="M67.5493 68.4392H54.7504C53.621 68.4392 52.7427 67.5608 52.7427 66.4315C52.7427 65.3022 53.621 64.4238 54.7504 64.4238H67.5493C68.6787 64.4238 69.557 65.3022 69.557 66.4315C69.557 67.5608 68.6787 68.4392 67.5493 68.4392Z" fill="#D5DDEA"/>
<path d="M88.2534 68.4392H75.4545C74.3251 68.4392 73.4468 67.5608 73.4468 66.4315C73.4468 65.3022 74.3251 64.4238 75.4545 64.4238H88.2534C89.3828 64.4238 90.2611 65.3022 90.2611 66.4315C90.2611 67.5608 89.3828 68.4392 88.2534 68.4392Z" fill="#D5DDEA"/>
<path d="M108.958 68.4392H96.1588C95.0295 68.4392 94.1511 67.5608 94.1511 66.4315C94.1511 65.3022 95.0295 64.4238 96.1588 64.4238H108.958C110.087 64.4238 110.965 65.3022 110.965 66.4315C110.965 67.5608 110.087 68.4392 108.958 68.4392Z" fill="#D5DDEA"/>
<path d="M104.315 44.347C108.473 44.347 111.844 40.9763 111.844 36.8182C111.844 32.6602 108.473 29.2894 104.315 29.2894C100.157 29.2894 96.7861 32.6602 96.7861 36.8182C96.7861 40.9763 100.157 44.347 104.315 44.347Z" fill="#989FB0"/>
<path d="M94.4021 44.347C98.5601 44.347 101.931 40.9763 101.931 36.8182C101.931 32.6602 98.5601 29.2894 94.4021 29.2894C90.2441 29.2894 86.8733 32.6602 86.8733 36.8182C86.8733 40.9763 90.2441 44.347 94.4021 44.347Z" fill="#D5DDEA"/>
<path d="M47.9746 46.7311H33.9208C32.9169 46.7311 32.0386 45.8527 32.0386 44.8489V35.8143C32.0386 34.8105 32.9169 33.9321 33.9208 33.9321H47.8491C48.8529 33.9321 49.7313 34.8105 49.7313 35.8143V44.8489C49.8568 45.8527 48.9784 46.7311 47.9746 46.7311Z" fill="#D5DDEA"/>
<path d="M127.713 83.6426C127.313 85.3426 126.713 87.1426 126.013 88.6426C124.113 92.3426 121.113 95.2426 117.413 97.1426C113.613 99.0426 109.113 99.8426 104.613 98.8426C94.0134 96.6426 87.2134 86.2426 89.4134 75.6426C91.6134 65.0426 101.913 58.1426 112.513 60.4426C116.313 61.2426 119.613 63.1426 122.413 65.7426C127.113 70.4426 129.113 77.2426 127.713 83.6426Z" fill="url(#paint1_linear_44_148)"/>
<path d="M114.813 77.9427H110.313V73.4427C110.313 72.5427 109.613 71.7427 108.613 71.7427C107.713 71.7427 106.913 72.4427 106.913 73.4427V77.9427H102.413C101.513 77.9427 100.713 78.6427 100.713 79.6427C100.713 80.6427 101.413 81.3427 102.413 81.3427H106.913V85.8427C106.913 86.7427 107.613 87.5427 108.613 87.5427C109.513 87.5427 110.313 86.8427 110.313 85.8427V81.3427H114.813C115.713 81.3427 116.513 80.6427 116.513 79.6427C116.513 78.6427 115.713 77.9427 114.813 77.9427Z" fill="white"/>
<defs>
<filter id="filter0_d_44_148" x="0" y="8" width="142" height="107.869" filterUnits="userSpaceOnUse" color-interpolation-filters="sRGB">
<feFlood flood-opacity="0" result="BackgroundImageFix"/>
<feColorMatrix in="SourceAlpha" type="matrix" values="0 0 0 0 0 0 0 0 0 0 0 0 0 0 0 0 0 0 127 0" result="hardAlpha"/>
<feOffset dy="11"/>
<feGaussianBlur stdDeviation="11"/>
<feColorMatrix type="matrix" values="0 0 0 0 0.397708 0 0 0 0 0.47749 0 0 0 0 0.575 0 0 0 0.27 0"/>
<feBlend mode="normal" in2="BackgroundImageFix" result="effect1_dropShadow_44_148"/>
<feBlend mode="normal" in="SourceGraphic" in2="effect1_dropShadow_44_148" result="shape"/>
</filter>
<linearGradient id="paint0_linear_44_148" x1="70.9681" y1="17.5226" x2="70.9681" y2="83.558" gradientUnits="userSpaceOnUse">
<stop stop-color="#FDFEFF"/>
<stop offset="0.9964" stop-color="#ECF0F5"/>
</linearGradient>
<linearGradient id="paint1_linear_44_148" x1="88.9821" y1="79.6421" x2="128.159" y2="79.6421" gradientUnits="userSpaceOnUse">
<stop stop-color="#B0BACC"/>
<stop offset="1" stop-color="#969EAE"/>
</linearGradient>
</defs>
</svg>
